<?xml version="1.0" encoding="UTF-8" standalone="no"?>
<!-- Created with Inkscape (http://www.inkscape.org/) -->

<svg
   xmlns:dc="http://purl.org/dc/elements/1.1/"
   xmlns:cc="http://creativecommons.org/ns#"
   xmlns:rdf="http://www.w3.org/1999/02/22-rdf-syntax-ns#"
   xmlns:svg="http://www.w3.org/2000/svg"
   xmlns="http://www.w3.org/2000/svg"
   xmlns:sodipodi="http://sodipodi.sourceforge.net/DTD/sodipodi-0.dtd"
   xmlns:inkscape="http://www.inkscape.org/namespaces/inkscape"
   width="800"
   height="400"
   viewBox="0 0 211.66666 105.83333"
   version="1.1"
   id="svg1207"
   inkscape:version="0.92.3 (unknown)"
   sodipodi:docname="MozillaPeru_planoBlanco.svg"
   inkscape:export-filename="/home/keik/Escritorio/MozillaPeru/MozillaPeru_planoBlanco.png"
   inkscape:export-xdpi="200"
   inkscape:export-ydpi="200">
  <title
     id="title823">Mozilla Perú logo Blanco </title>
  <defs
     id="defs1201" />
  <sodipodi:namedview
     id="base"
     pagecolor="#ffffff"
     bordercolor="#666666"
     borderopacity="1.0"
     inkscape:pageopacity="0"
     inkscape:pageshadow="2"
     inkscape:zoom="0.92625"
     inkscape:cx="175.4386"
     inkscape:cy="200"
     inkscape:document-units="mm"
     inkscape:current-layer="layer1"
     showgrid="false"
     borderlayer="true"
     inkscape:showpageshadow="false"
     showguides="false"
     inkscape:guide-bbox="true"
     inkscape:window-width="1332"
     inkscape:window-height="716"
     inkscape:window-x="34"
     inkscape:window-y="0"
     inkscape:window-maximized="1"
     fit-margin-top="10"
     fit-margin-left="10"
     fit-margin-bottom="10"
     fit-margin-right="10"
     units="px"
     inkscape:pagecheckerboard="true">
    <sodipodi:guide
       position="51.455137,-54.031904"
       orientation="0,1"
       id="guide2803"
       inkscape:locked="false" />
    <sodipodi:guide
       position="117.46648,-7.9827585"
       orientation="0,1"
       id="guide2923"
       inkscape:locked="false" />
    <sodipodi:guide
       position="203.61015,-17.510168"
       orientation="0,1"
       id="guide2925"
       inkscape:locked="false" />
  </sodipodi:namedview>
  <metadata
     id="metadata1204">
    <rdf:RDF>
      <cc:Work
         rdf:about="">
        <dc:format>image/svg+xml</dc:format>
        <dc:type
           rdf:resource="http://purl.org/dc/dcmitype/StillImage" />
        <dc:title>Mozilla Perú logo Blanco </dc:title>
        <cc:license
           rdf:resource="http://creativecommons.org/licenses/by-nd/4.0/" />
        <dc:date>2019</dc:date>
        <dc:creator>
          <cc:Agent>
            <dc:title>Karla Hernandez</dc:title>
          </cc:Agent>
        </dc:creator>
        <dc:rights>
          <cc:Agent>
            <dc:title>Mozilla Perú</dc:title>
          </cc:Agent>
        </dc:rights>
        <dc:publisher>
          <cc:Agent>
            <dc:title>Mozilla Hispano</dc:title>
          </cc:Agent>
        </dc:publisher>
        <dc:contributor>
          <cc:Agent>
            <dc:title>por @klhernandez42</dc:title>
          </cc:Agent>
        </dc:contributor>
        <dc:language>Español</dc:language>
      </cc:Work>
      <cc:License
         rdf:about="http://creativecommons.org/licenses/by-nd/4.0/">
        <cc:permits
           rdf:resource="http://creativecommons.org/ns#Reproduction" />
        <cc:permits
           rdf:resource="http://creativecommons.org/ns#Distribution" />
        <cc:requires
           rdf:resource="http://creativecommons.org/ns#Notice" />
        <cc:requires
           rdf:resource="http://creativecommons.org/ns#Attribution" />
      </cc:License>
    </rdf:RDF>
  </metadata>
  <g
     inkscape:label="Capa 1"
     inkscape:groupmode="layer"
     id="layer1"
     transform="translate(-48.072277,-77.58845)"
     style="display:inline">
    <path
       style="opacity:1;fill:#ffffff;fill-opacity:1;stroke:#000000;stroke-width:0.05;stroke-linecap:square;stroke-linejoin:round;stroke-miterlimit:4;stroke-dasharray:none;stroke-dashoffset:0;stroke-opacity:1;paint-order:markers stroke fill"
       d="m 142.14845,94.579662 v 28.481978 h 99.64456 V 94.579662 Z m -76.130238,0.16278 V 166.42127 H 137.69704 V 94.742442 Z m 148.095868,3.46335 h 3.51503 l -5.3976,19.015378 h -3.51503 z m 7.25175,0 h 3.51503 l -5.39708,19.015378 h -3.51555 z m -64.27101,6.310728 c 1.79915,0 3.46007,0.85777 4.069,2.68459 0.692,-1.66074 2.1038,-2.68459 4.06901,-2.68459 2.242,0 4.29017,1.35641 4.29017,4.31808 v 5.67408 h 1.60559 v 2.71249 h -5.20382 v -7.00267 c 0,-2.15897 -0.71949,-2.98948 -2.13113,-2.98948 -1.71609,0 -2.40812,1.21779 -2.40812,2.96157 v 4.34547 h 1.66036 v 2.71302 h -5.2312 v -7.03058 c 0,-2.15897 -0.71952,-2.98948 -2.13114,-2.98948 -1.71611,0 -2.40812,1.21779 -2.40812,2.96157 v 4.34547 h 2.38021 v 2.71302 h -7.58403 v -2.71302 h 1.66088 v -7.05796 h -1.66088 v -2.7125 h 5.2312 v 1.88206 c 0.74734,-1.3286 2.04824,-2.13114 3.79202,-2.13114 z m 22.28185,0 c 4.484,0 6.67091,3.01695 6.67091,6.50451 0,3.98578 -2.87892,6.50451 -6.8647,6.50451 -3.84739,0 -6.50451,-2.35284 -6.50451,-6.33863 0,-3.65363 2.21429,-6.67039 6.6983,-6.67039 z m 51.59375,0 c 2.68485,0 4.95473,1.38394 4.95473,4.23488 v 5.39761 c 0,0.71966 0.27657,0.96841 0.85783,0.96841 0.16607,0 0.33232,-0.0274 0.52607,-0.0827 l 0.0827,1.90945 c -0.6643,0.35982 -1.46671,0.58135 -2.24173,0.58135 -1.66075,0 -2.57432,-0.96846 -2.7404,-2.4908 -0.71965,1.27323 -1.99262,2.4908 -4.01319,2.4908 -1.79913,0 -3.84731,-0.96849 -3.84731,-3.57032 0,-3.07238 2.96163,-3.79202 5.81257,-3.79202 0.69199,0 1.41131,0.0276 2.04793,0.11059 v -0.41548 c 0,-1.27323 -0.0274,-2.79518 -2.04793,-2.79518 -0.74733,0 -1.32871,0.0552 -1.90996,0.35967 l -0.41548,1.4118 -2.85047,-0.30437 0.44286,-2.8789 c 2.18664,-0.88573 3.29353,-1.13481 5.3418,-1.13481 z m -42.65322,0.24908 h 10.93319 l 0.27647,1.88206 -6.91948,7.8884 h 4.0411 l 0.58136,-1.93735 2.82308,0.27699 -0.77514,4.37338 h -10.87789 l -0.35967,-1.88257 6.86418,-7.88841 h -3.9026 l -0.55346,1.93735 -2.574,-0.27647 z m 14.36502,0 h 3.73672 v 4.48396 h -3.73672 z m -23.36085,2.46342 c -1.82682,0 -2.96158,1.35609 -2.96158,3.70881 0,2.15896 0.99614,3.81992 2.93368,3.81992 1.85449,0 3.07268,-1.46713 3.07268,-3.87521 0,-2.51879 -1.35636,-3.65352 -3.04478,-3.65352 z m -70.38072,0.68316 c 0.75048,-0.0175 1.50749,0.0769 2.18075,0.24339 1.87364,0.46338 3.59565,1.88341 4.57853,3.54449 0.72332,1.22249 0.66456,4.20905 0.66456,4.20905 0,0 4.8788,-0.39298 7.31067,-0.66456 2.04822,-0.22872 6.12934,-0.81236 6.12934,-0.81236 4.00666,-0.53252 3.70637,2.58877 2.60656,3.56878 -2.42459,2.16047 -7.8297,4.69025 -8.12509,4.83795 0,0 -0.38321,2.33009 -1.50068,2.21175 -3.06835,-0.32496 -4.1488,-1.98622 -6.12573,-1.31362 -3.16496,1.07679 -4.76013,1.57441 -6.87916,2.38694 -2.13196,0.81748 -5.3051,4.33307 -5.3051,4.33307 0,0 5.15065,-0.0934 7.08897,1.32911 0.67473,0.49516 0.51698,1.70703 1.18184,2.21537 0.70206,0.53678 1.79711,0.18903 2.58434,0.59066 0.46615,0.23784 1.09114,0.51863 1.18184,1.03405 0.47729,2.71263 -1.95583,5.37747 -3.98787,7.23677 -1.66692,1.52523 -4.22201,1.64655 -6.20324,2.73265 -2.95738,1.62121 -5.3706,4.16843 -8.418611,5.61206 -2.663566,1.26154 -5.87325,1.1639 -8.455297,2.58485 -1.307569,0.71959 -2.01584,2.35202 -3.397208,2.91714 -2.717271,1.11162 -6.014277,1.55403 -8.787577,0.59066 -1.16059,-0.40316 -1.927821,-1.54499 -2.732133,-2.47375 -0.505042,-0.58318 -1.292428,-1.9203 -1.292428,-1.9203 0,0 -1.363966,0.41837 -2.067574,0.51676 -0.743945,0.104 -2.252576,0.0739 -2.252576,0.0739 0,0 0.08494,-3.38927 0.590662,-4.98419 1.484781,-4.68257 4.123655,-5.67431 7.015592,-12.96045 1.840091,-4.63604 4.171761,-9.343 7.79074,-12.77545 3.084552,-2.92559 7.163152,-4.79931 11.224636,-6.05544 2.128245,-0.65825 6.646624,-0.70125 6.646624,-0.70125 l 2.84272,-2.17868 c 0,0 -0.47212,-3.57929 0.62787,-4.72632 0.80005,-0.83428 2.03325,-1.17385 3.28403,-1.20303 z m -0.4165,2.50217 c -0.0591,0.002 -0.11792,0.009 -0.17674,0.0217 -0.36922,0.0805 -0.69807,0.33531 -0.95395,0.6134 -0.55694,0.60529 -1.15755,2.17919 -1.15755,2.17919 0.028,0.75413 -0.60048,1.91926 -0.60048,1.91926 -1.83363,0.71599 -1.91614,1.55706 -2.53214,2.0991 -7.733204,-1.23608 -13.393039,3.36909 -18.388546,7.76387 -3.116355,2.74161 -4.768829,6.77958 -6.266283,10.76058 l 1.770951,0.13642 c 1.589654,-2.39876 2.833597,-5.47817 5.448247,-7.08328 0.453319,-0.27829 0.873051,-0.0392 1.22628,1.02164 1.128689,-0.67649 1.970141,-0.75657 2.179196,0.47697 1.511914,-0.39495 2.540283,-0.0651 3.200839,0.81701 0.770104,-0.36568 1.54745,-0.81077 2.179712,0.40876 0.735999,-0.24608 1.326734,-0.20209 1.498099,0.68109 0.499444,0.006 0.998654,-0.3152 1.4981,0.40876 0.197594,-0.77858 1.130454,-0.82238 2.316136,-0.61288 -0.85567,-1.49311 -0.290716,-4.69089 -0.340547,-7.15098 0,0 0.612586,5.58477 0.748796,5.31233 0.13621,-0.27242 5.62211,-2.96135 7.83259,-5.17642 1.45885,-1.46187 2.18185,-3.5118 3.40496,-5.17591 0.46485,-0.63245 0.23617,-0.34727 0.23617,-0.34727 -0.38835,0.0975 -2.09173,0.44345 -2.59365,0.1602 -0.74593,-0.42094 -0.3679,-0.36183 -0.43821,-0.43925 0.29013,0.19988 0.53439,0.28642 0.89038,0.29507 1.07703,0.0262 2.36126,-0.34774 3.40548,-0.35192 0.10071,-0.0241 -0.58898,-0.19693 -1.32653,-0.2744 -0.46772,-0.0491 -1.66126,-0.0757 -1.94304,-0.0294 -0.49892,0.0818 -0.77479,0.17501 -0.93792,0.23719 0.0499,-0.0303 0.14803,-0.094 0.2191,-0.14108 0.17321,-0.0833 0.36755,-0.16702 0.51315,-0.19223 1.35157,-0.23395 2.523,-0.0299 4.10466,0.29145 -0.38153,-0.66273 -0.91055,-0.94002 -1.87224,-1.07797 0.3513,-0.0386 0.73491,-0.0578 1.16014,-0.045 1.36307,0.32397 1.54248,-1.92216 1.02784,-2.68614 l -0.27182,-0.31677 c 0,0 0.21021,-0.39473 0.14211,-0.66715 -0.0681,-0.27242 -0.12383,-0.99085 -0.34054,-1.4304 -0.20694,-0.41977 -0.88522,-1.08986 -0.88522,-1.08986 l -0.80564,0.12661 0.32866,-0.53485 c 0,0 -0.51898,-0.62544 -0.88521,-0.74931 -0.43064,-0.14567 -0.90806,0.0891 -1.36219,0.0682 -0.42094,-0.0194 -0.8397,-0.24027 -1.25315,-0.22634 z m -8.758129,21.6116 c -1.024911,-0.0429 -1.822794,0.22982 -2.304766,0.94103 -0.389512,-0.65456 -0.981081,-0.58232 -1.50947,-0.73691 -0.339362,-0.4672 -1.006961,-0.31162 -1.622639,-0.36431 -0.596344,-0.70029 -1.253715,-0.91401 -2.055172,-0.72554 -1.083284,-0.54401 -2.16408,-1.11099 -3.38274,-0.16588 -0.269992,-1.32375 -1.255255,-1.21767 -2.492354,-0.6072 0.03915,-0.89881 -0.277656,-1.33182 -1.1405,-1.0511 0,0 -2.14363,2.19469 -2.67322,3.58945 -0.410312,1.08059 -0.296624,3.28541 -0.296624,3.45508 l 1.950786,-1.67328 c 0.930431,-0.50431 0.956013,0.22324 0.956013,0.22324 0,0 0.811626,-0.69273 1.080037,-0.85938 0.954493,0.0419 0.808977,0.59328 0.297141,1.31465 0.959755,0.1147 0.915106,0.86185 0.933275,1.56941 0.623541,-0.0601 0.753698,0.38153 0.720887,0.72141 0.878215,-0.0487 1.030795,0.42518 1.018026,1.01802 0.312291,-0.20386 0.641379,-0.29576 1.0604,0.21188 0.561255,-0.61482 1.11946,-0.35901 1.484664,0.0424 l 1.866554,-2.37505 c 0.871376,-0.56076 0.969645,0.0676 0.169497,2.07843 0.703548,-0.43938 1.51161,-0.0934 1.866553,0.63613 0.47475,-0.84552 1.099582,-0.33898 1.696538,-0.0847 0.630782,-0.79954 1.491702,-0.67941 2.375564,-0.46663 0.483949,-0.45203 1.522659,-0.20987 2.502179,-0.0424 0.46073,-0.55091 1.19098,-0.47347 2.03605,-0.12764 0.43879,-0.43198 1.04258,-0.63271 2.1208,-0.1695 -0.3983,-0.46388 0.84624,-0.54853 2.07842,-0.63614 0,0 -2.83535,-0.46702 -4.07158,-1.14514 -0.78138,-0.42862 -1.99368,-1.78181 -1.99368,-1.78181 0,0 3.90804,1.31887 3.52071,0.7214 -0.38732,-0.59745 -1.35754,-1.0604 -1.35754,-1.0604 0,0 2.20656,0.38165 3.26595,0.12713 0.78785,-0.18927 3.13997,-1.02334 2.12081,-1.18804 -1.01916,-0.16471 -2.39238,0.633 -3.60547,0.5519 -2.29287,-0.15332 -6.615099,-1.94045 -6.615099,-1.94045 z M 230.58284,111.79618 c -1.27324,0 -2.38021,0.35989 -2.38021,1.71617 0,0.80269 0.38762,1.43919 1.46709,1.43919 1.27324,0 2.6294,-0.91356 2.7125,-2.98948 -0.58126,-0.083 -1.21812,-0.16588 -1.79938,-0.16588 z m -27.90062,0.96842 h 3.73672 v 4.48448 h -3.73672 z m -71.90827,3.73517 c -1.10571,7.9e-4 -3.04788,0.75551 -3.04788,0.75551 0,0 -2.75951,1.63797 -4.19767,2.22105 -0.28424,0.11524 -0.63463,0.2342 -1.00201,0.35192 0.62522,-0.25317 1.19251,-0.54022 1.54306,-0.84181 1.23456,-1.06221 3.11505,-1.834 3.11505,-1.834 -0.20951,-0.21908 -0.19803,-0.58991 -2.53059,0.65061 0.045,-0.51717 -0.87348,0.0895 -1.61231,0.48679 0.37595,-0.69357 -1.00548,-0.0432 -1.67276,0.061 0.78815,-0.91952 -1.21756,-0.13103 -1.82521,0.42581 0.34166,-0.30486 -0.0734,-1.17483 -2.281,0.36536 l -0.0357,0.0139 c -0.15216,0.0195 -0.29376,0.0342 -0.41548,0.0362 l -2.67477,0.10026 c -0.0776,0.0179 -2.12977,0.17681 -2.04897,0.25011 0,0 -2.07992,3.29856 -2.64893,4.58266 0,0.17585 3.66106,-0.65544 5.49062,-1.85725 1.10065,-0.72301 3.67058,-0.0946 3.67058,-0.0946 l 2.17816,0.60254 c 0.97167,0.27962 2.52246,0.60771 1.34565,-0.16846 -0.43718,-0.28836 -0.81842,-0.48161 -1.12551,-0.61133 1.2837,-0.36863 3.50706,-1.04929 4.81159,-1.69861 1.90253,-0.94695 6.30478,-3.31924 5.4746,-3.71088 -0.12972,-0.0611 -0.30581,-0.087 -0.51056,-0.0868 z m -23.8802,1.29656 a 0.82132283,0.81612451 0 0 1 0.6749,0.35192 0.57322092,0.56959293 0 0 0 -0.42685,-0.19069 0.57322092,0.56959293 0 0 0 -0.57309,0.56948 0.57322092,0.56959293 0 0 0 0.57309,0.56947 0.57322092,0.56959293 0 0 0 0.57102,-0.52452 0.82132283,0.81612451 0 0 1 0.002,0.0408 0.82132283,0.81612451 0 0 1 -0.82114,0.81597 0.82132283,0.81612451 0 0 1 -0.82114,-0.81597 0.82132283,0.81612451 0 0 1 0.82114,-0.81649 z m 35.2547,9.98802 v 38.64622 h 21.16976 16.50546 14.35984 0.63562 20.08973 v -38.64622 h -20.08973 -0.63562 -14.35984 -16.50546 z m -60.289862,6.30814 c -0.338685,0.1562 -2.873531,3.55814 -3.802351,5.52215 -0.928822,1.96401 -1.637311,4.85642 -1.752348,6.08335 -0.115038,1.22691 0.09474,0.52198 0.09922,1.05833 0.0045,0.53635 -0.175953,1.48516 -0.165365,2.14922 0.01059,0.66405 0.176145,1.06704 0.198437,1.8185 0.02228,0.75148 -0.132291,2.67787 -0.132291,2.67787 -0.400774,1.74848 0.369181,1.09771 0.727604,1.28984 0.34309,0.61423 0.61315,1.31677 2.049487,0.5948 1.386037,0.71644 2.072831,0.25694 2.546098,-0.56173 0.557711,0.77638 1.479724,0.63615 1.785421,-0.33073 1.458571,1.3131 1.917462,0.14579 2.380734,-0.42994 2.096712,-0.52522 2.268752,-1.90121 1.851565,-3.53777 1.606727,0.86719 2.286941,0.22397 2.777609,-0.72761 0.609872,0.24498 1.140798,0.67168 2.149223,0 0.106201,0.24782 1.530022,0.49844 1.818492,-0.39635 0.191302,-0.59339 1.322401,-1.32292 1.322401,-1.32292 0,0 1.353195,0.51991 1.983859,0.29766 1.13071,-0.39848 1.024742,-1.25626 1.024742,-1.25626 0,0 1.534405,0.20857 1.969905,-0.29249 0.39879,-0.45882 0.0139,-1.82366 0.0139,-1.82366 0,0 0.87552,0.22014 1.32292,0.23151 0.72156,0.0183 1.53886,0.1207 2.14922,-0.26458 0.17623,-0.11123 0.35678,-0.31982 0.33539,-0.5271 -0.057,-0.55207 -1.16221,-1.19218 -1.16221,-1.19218 0,0 1.12211,0.28027 1.52084,-0.0331 0.13454,-0.10571 0.13229,-0.49609 0.13229,-0.49609 0,0 2.84167,0.47002 3.96772,0.19843 1.12606,-0.2716 2.75719,-0.62696 2.57917,-1.48776 -0.17802,-0.86082 -2.00304,0.0331 -2.23449,0.0331 -0.23145,0 -1.74098,0.28284 -2.59312,0.13178 -0.47167,-0.0836 -1.3224,-0.56172 -1.32241,-0.56172 0,0 1.08544,0.0763 1.62006,0 0.19081,-0.0272 0.36594,-0.12421 0.55501,-0.16175 0.64216,-0.12747 1.00189,-0.0443 1.95285,-0.21239 0.95097,-0.16811 2.41205,-0.67894 3.47679,-1.31207 0.8406,-0.49985 1.54592,-1.16477 2.24844,-1.98386 0.2561,-0.29859 0.51079,-0.8805 0.23151,-1.15755 -0.38363,-0.38058 -1.12938,0.0433 -1.58698,0.33073 -0.76047,0.47764 -1.8322,1.88173 -2.97605,1.75235 -0.81696,-0.0924 -1.27016,-0.29442 -1.90996,-0.24391 -0.76962,0.0608 -2.41342,0.0773 -2.2226,0.6506 -0.5874,0.0256 -1.20215,-0.5088 -2.46445,0.19172 -0.89954,-0.0966 -1.76883,-0.38226 -2.05827,0.1602 -0.25581,-0.16839 -2.0956,-0.5009 -2.45825,0.28629 -1.542849,-0.11963 -1.851956,0.0352 -2.319755,0.31161 -0.64733,-0.68456 -1.227606,-0.19618 -1.818495,0.10697 -0.244874,-0.38815 -0.512715,-0.76771 -2.143538,-0.63614 0.05393,-0.65583 0.705298,-2.49124 -1.714624,0.13074 -0.597659,-0.50894 -1.044871,-0.23482 -1.499132,0.003 -0.37248,-0.40806 -0.781902,-0.44539 -1.21698,-0.22738 -0.0039,-1.00282 -0.591748,-0.87989 -1.080555,-1.01028 0.182213,-0.78708 -0.449062,-0.6678 -0.956014,-0.60358 -0.106664,-0.74843 -0.03182,-1.52172 -0.674894,-1.73374 0.371658,-1.10479 -0.04211,-1.31596 -1.486731,-0.35398 v -5.3e-4 c 0,0 0.05889,-0.64711 -0.336931,-0.4191 -0.350589,0.20194 -3.614037,3.05645 -4.427119,3.82354 0.424915,-0.46523 1.400431,-1.58492 1.400431,-1.58492 0,0 -0.01931,-1.45443 0.324528,-2.95072 z m 125.731342,1.11311 2.29133,3.45457 -6.66884,3.11196 -1.16272,-1.67587 z m -127.966864,1.08831 -1.420068,0.17931 c -3.397377,6.73145 -4.954104,7.79308 -6.833692,11.99255 -0.579323,1.29437 -1.353405,4.03335 -1.353405,4.03335 0,0 1.170645,-1.14979 1.628324,-1.82418 0.518013,-0.76331 1.23765,-2.4753 1.23765,-2.4753 0,0 -0.91124,2.44179 -0.175183,2.63085 0.480022,0.1233 0.891935,-1.65365 0.891935,-1.65365 0,0 0.176525,2.03474 0.586011,1.62833 0.549692,-0.54556 0.301571,-2.2917 0.65164,-3.38688 0.254416,-0.79593 0.77329,-1.48885 1.042314,-2.27996 0.279796,-0.82279 0.401957,-1.69106 0.58601,-2.54041 0.585653,-2.70262 3.158464,-6.30401 3.158464,-6.30401 z m 64.201244,0.62167 h 10.19163 c 2.75882,0 4.85623,0.65013 6.29264,1.94975 1.43641,1.29961 2.15491,3.06655 2.15491,5.30096 0,1.27681 -0.22819,2.38283 -0.6842,3.31763 -0.4332,0.93481 -1.0376,1.72115 -1.81281,2.35955 -0.7524,0.61561 -1.63023,1.0833 -2.63343,1.4025 -0.9804,0.2964 -2.01755,0.44441 -3.11195,0.44441 h -3.41995 v 3.55689 h 3.41995 v 3.89847 h -10.39679 v -3.89847 h 2.39366 v -14.43271 h -2.39366 z m 6.97684,3.89898 v 7.01094 h 2.5647 c 1.57321,0 2.65661,-0.31916 3.24941,-0.95756 0.61561,-0.66121 0.92295,-1.53902 0.92295,-2.63343 0,-1.09441 -0.30734,-1.93779 -0.92295,-2.5306 -0.5928,-0.5928 -1.65307,-0.88935 -3.18068,-0.88935 z m 20.64318,2.59933 c 1.07161,0 2.04091,0.15983 2.90732,0.47904 0.88921,0.3192 1.65293,0.77507 2.29133,1.36787 0.63841,0.5928 1.12871,1.29948 1.47071,2.12029 0.36481,0.8208 0.55856,1.73306 0.58136,2.73626 0,0.342 -0.0226,0.70639 -0.0682,1.09399 -0.0228,0.36481 -0.0798,0.74102 -0.17105,1.12862 h -10.12341 c 0.25081,2.43961 1.45909,3.65972 3.6251,3.65972 0.5928,0 1.08311,-0.0802 1.47071,-0.23978 0.38761,-0.1596 0.69546,-0.35336 0.92346,-0.58136 0.2508,-0.2508 0.43325,-0.51291 0.54725,-0.78651 0.11401,-0.2964 0.19366,-0.55852 0.23927,-0.78652 l 3.69383,0.6842 c -0.0456,0.68401 -0.23936,1.34494 -0.58136,1.98334 -0.342,0.61561 -0.82101,1.16296 -1.43661,1.64176 -0.59281,0.47881 -1.32261,0.86632 -2.18901,1.16272 -0.86641,0.2736 -1.85781,0.41031 -2.97502,0.41031 -1.14,0 -2.20027,-0.15932 -3.18068,-0.47852 -0.9576,-0.3192 -1.7902,-0.7982 -2.497,-1.43661 -0.70681,-0.6612 -1.26495,-1.47067 -1.67535,-2.42827 -0.38761,-0.98041 -0.58188,-2.12034 -0.58188,-3.41995 0,-1.18561 0.17114,-2.2798 0.51315,-3.283 0.342,-1.026 0.84361,-1.90383 1.50481,-2.63343 0.66121,-0.75241 1.47067,-1.3342 2.42828,-1.7446 0.95761,-0.43321 2.0518,-0.64957 3.283,-0.64957 z m 18.72393,0.10283 c 0.4332,0 0.91168,0.0684 1.43608,0.20516 0.5472,0.114 1.08325,0.33037 1.60766,0.64957 l 0.68368,5.40381 -3.35122,0.3762 -0.58136,-2.63343 c -0.228,-0.1368 -0.43358,-0.23959 -0.61598,-0.30799 -0.1824,-0.0684 -0.37616,-0.10232 -0.58136,-0.10232 -0.5016,0 -0.94617,0.19376 -1.33377,0.58136 -0.3648,0.3876 -0.54726,0.95757 -0.54726,1.70997 v 6.42958 h 2.73627 v 3.31711 h -9.19995 v -3.31711 h 2.05207 v -8.75554 H 180.25 v -3.35121 h 6.29264 v 2.9409 c 0.2508,-0.88919 0.65014,-1.63031 1.19734,-2.22311 0.57001,-0.61561 1.37947,-0.92295 2.42828,-0.92295 z m 4.83588,0.20516 h 6.46368 v 8.68681 c 0,1.3452 0.21689,2.30268 0.65009,2.87269 0.456,0.5472 1.11694,0.82062 1.98334,0.82062 1.07161,0 1.8929,-0.33047 2.4629,-0.99167 0.57001,-0.68401 0.85473,-1.57313 0.85473,-2.66754 v -5.4038 h -2.49649 v -3.31711 h 6.90811 v 12.10675 h 2.22312 v 3.31711 h -6.63474 v -2.35954 c -0.5016,0.8664 -1.17436,1.52733 -2.01796,1.98334 -0.82081,0.456 -1.8009,0.68419 -2.94091,0.68419 -0.72961,0 -1.42498,-0.10279 -2.08618,-0.30799 -0.6384,-0.228 -1.20837,-0.55846 -1.70997,-0.99167 -0.50161,-0.4332 -0.90094,-0.98055 -1.19734,-1.64176 -0.2736,-0.684 -0.41031,-1.48164 -0.41031,-2.39365 v -7.07967 h -2.05207 z m -23.55981,2.83858 c -0.912,0 -1.61868,0.29603 -2.12028,0.88884 -0.50161,0.5928 -0.82076,1.36835 -0.95756,2.32596 h 5.78 c 0.0456,-0.3876 0.0225,-0.76382 -0.0687,-1.12862 -0.0684,-0.3876 -0.21641,-0.72989 -0.44441,-1.02629 -0.20521,-0.3192 -0.48993,-0.57001 -0.85473,-0.75241 -0.3648,-0.20521 -0.80988,-0.30748 -1.33429,-0.30748 z"
       id="rect1752"
       inkscape:connector-curvature="0" />
    <g
       aria-label="Perú"
       style="font-style:normal;font-variant:normal;font-weight:bold;font-stretch:normal;font-size:34.20021057px;line-height:1;font-family:'Zilla Slab Highlight';-inkscape-font-specification:'Zilla Slab Highlight Bold';text-align:start;letter-spacing:0px;word-spacing:0px;text-anchor:start;fill:#000000;fill-opacity:1;stroke:none;stroke-width:0.26458329"
       id="text2799"
       transform="translate(-1.7441998)" />
    <g
       style="stroke-width:1.55748987"
       id="g1607"
       transform="matrix(-0.64205876,0,0,0.64205876,164.22595,64.271385)" />
  </g>
  <style
     id="style2"
     type="text/css">
	.st0{fill:#FFFFFF;}
</style>
  <style
     id="style2-7"
     type="text/css">
	.st0{fill:#FFFFFF;}
</style>
</svg>
