<?xml version="1.0" encoding="UTF-8" standalone="no"?>
<!-- Created with Inkscape (http://www.inkscape.org/) -->

<svg
   xmlns:dc="http://purl.org/dc/elements/1.1/"
   xmlns:cc="http://creativecommons.org/ns#"
   xmlns:rdf="http://www.w3.org/1999/02/22-rdf-syntax-ns#"
   xmlns:svg="http://www.w3.org/2000/svg"
   xmlns="http://www.w3.org/2000/svg"
   xmlns:sodipodi="http://sodipodi.sourceforge.net/DTD/sodipodi-0.dtd"
   xmlns:inkscape="http://www.inkscape.org/namespaces/inkscape"
   width="195.77466mm"
   height="91.850868mm"
   viewBox="0 0 195.77466 91.850868"
   version="1.1"
   id="svg1207"
   inkscape:version="0.92.3 (unknown)"
   sodipodi:docname="MozillaPeru_planoNegro.svg"
   inkscape:export-filename="/home/keik/Escritorio/MozillaPeru/MozillaPeru_planoNegro.png"
   inkscape:export-xdpi="200"
   inkscape:export-ydpi="200">
  <title
     id="title824">Mozilla Perú logo Negro</title>
  <defs
     id="defs1201" />
  <sodipodi:namedview
     id="base"
     pagecolor="#ffffff"
     bordercolor="#666666"
     borderopacity="1.0"
     inkscape:pageopacity="0.0"
     inkscape:pageshadow="2"
     inkscape:zoom="1.0014383"
     inkscape:cx="369.96788"
     inkscape:cy="173.57645"
     inkscape:document-units="mm"
     inkscape:current-layer="layer1"
     showgrid="false"
     borderlayer="true"
     inkscape:showpageshadow="false"
     showguides="false"
     inkscape:guide-bbox="true"
     inkscape:window-width="1332"
     inkscape:window-height="716"
     inkscape:window-x="34"
     inkscape:window-y="0"
     inkscape:window-maximized="1"
     fit-margin-top="10"
     fit-margin-left="10"
     fit-margin-bottom="10"
     fit-margin-right="10"
     inkscape:pagecheckerboard="true">
    <sodipodi:guide
       position="51.455137,-54.031904"
       orientation="0,1"
       id="guide2803"
       inkscape:locked="false" />
    <sodipodi:guide
       position="117.46648,-7.9827585"
       orientation="0,1"
       id="guide2923"
       inkscape:locked="false" />
    <sodipodi:guide
       position="203.61015,-17.510168"
       orientation="0,1"
       id="guide2925"
       inkscape:locked="false" />
  </sodipodi:namedview>
  <metadata
     id="metadata1204">
    <rdf:RDF>
      <cc:Work
         rdf:about="">
        <dc:format>image/svg+xml</dc:format>
        <dc:type
           rdf:resource="http://purl.org/dc/dcmitype/StillImage" />
        <dc:title>Mozilla Perú logo Negro</dc:title>
        <cc:license
           rdf:resource="http://creativecommons.org/licenses/by-nd/4.0/" />
        <dc:date>2019</dc:date>
        <dc:creator>
          <cc:Agent>
            <dc:title>Karla L Hernandez</dc:title>
          </cc:Agent>
        </dc:creator>
        <dc:rights>
          <cc:Agent>
            <dc:title>Mozilla Perú</dc:title>
          </cc:Agent>
        </dc:rights>
        <dc:publisher>
          <cc:Agent>
            <dc:title>Mozilla Hispano</dc:title>
          </cc:Agent>
        </dc:publisher>
        <dc:language>Español</dc:language>
        <dc:contributor>
          <cc:Agent>
            <dc:title>Por @klhernandez42</dc:title>
          </cc:Agent>
        </dc:contributor>
      </cc:Work>
      <cc:License
         rdf:about="http://creativecommons.org/licenses/by-nd/4.0/">
        <cc:permits
           rdf:resource="http://creativecommons.org/ns#Reproduction" />
        <cc:permits
           rdf:resource="http://creativecommons.org/ns#Distribution" />
        <cc:requires
           rdf:resource="http://creativecommons.org/ns#Notice" />
        <cc:requires
           rdf:resource="http://creativecommons.org/ns#Attribution" />
      </cc:License>
    </rdf:RDF>
  </metadata>
  <g
     inkscape:label="Capa 1"
     inkscape:groupmode="layer"
     id="layer1"
     transform="translate(-48.072277,-91.570913)"
     style="display:inline"
     sodipodi:insensitive="true">
    <path
       style="opacity:1;fill:#000000;fill-opacity:1;stroke:none;stroke-width:11.33858395;stroke-linecap:square;stroke-linejoin:round;stroke-miterlimit:4;stroke-dasharray:none;stroke-dashoffset:0;stroke-opacity:1;paint-order:markers stroke fill"
       d="M 325.53125,37.794922 V 145.44336 H 702.14062 V 37.794922 Z M 37.794922,38.410156 V 309.32227 H 308.70703 V 38.410156 Z M 597.52734,51.5 h 13.28516 l -20.40039,71.86914 h -13.28516 z m 27.40821,0 h 13.28515 l -20.39843,71.86914 H 604.53516 Z M 382.02148,75.351562 c 6.79994,0 13.07741,3.241968 15.37891,10.146485 2.6154,-6.276813 7.95134,-10.146485 15.37891,-10.146485 8.4737,0 16.21484,5.1266 16.21484,16.320313 v 21.445315 h 6.06836 v 10.25195 H 415.39453 V 96.902344 c 0,-8.159887 -2.71935,-11.298828 -8.05469,-11.298828 -6.48601,0 -9.10156,4.602694 -9.10156,11.193359 V 113.2207 h 6.27539 v 10.25391 H 384.74219 V 96.902344 c 0,-8.159887 -2.71943,-11.298828 -8.05469,-11.298828 -6.48609,0 -9.10156,4.602694 -9.10156,11.193359 V 113.2207 h 8.99609 v 10.25391 H 347.91797 V 113.2207 h 6.27734 V 86.544922 h -6.27734 V 76.292969 h 19.77148 v 7.113281 c 2.82456,-5.02148 7.74137,-8.054688 14.33203,-8.054688 z m 84.21485,0 c 16.9474,0 25.21289,11.402656 25.21289,24.583985 0,15.064363 -10.88095,24.583983 -25.94531,24.583983 -14.54132,0 -24.58399,-8.89263 -24.58399,-23.95703 0,-13.808995 8.36897,-25.210938 25.31641,-25.210938 z m 195,0 c 10.1475,0 18.72656,5.230654 18.72656,16.00586 v 20.400388 c 0,2.71998 1.0453,3.66016 3.24219,3.66016 0.62766,0 1.256,-0.10349 1.98828,-0.3125 l 0.3125,7.2168 c -2.51074,1.35995 -5.54345,2.19726 -8.47266,2.19726 -6.27685,0 -9.72971,-3.66034 -10.35742,-9.41406 -2.71994,4.81221 -7.53117,9.41406 -15.16797,9.41406 -6.79986,0 -14.54101,-3.66045 -14.54101,-13.49414 0,-11.612144 11.19354,-14.332031 21.96875,-14.332031 2.61539,0 5.33411,0.104306 7.74023,0.417969 v -1.570312 c 0,-4.812208 -0.10358,-10.564454 -7.74023,-10.564454 -2.82456,0 -5.0219,0.208623 -7.21875,1.359376 l -1.57032,5.335937 -10.77343,-1.150391 1.67383,-10.880859 c 8.26446,-3.347641 12.44799,-4.289063 20.18945,-4.289063 z m -161.20899,0.941407 h 41.32227 l 1.04492,7.113281 -26.15234,29.81445 h 15.27343 l 2.19727,-7.32226 10.66992,1.04687 -2.92969,16.5293 h -41.11328 l -1.35937,-7.11523 25.94336,-29.814458 h -14.75 l -2.0918,7.322266 -9.72851,-1.044922 z m 54.29297,0 h 14.12305 v 16.947265 h -14.12305 z m -88.29297,9.310547 c -6.90451,0 -11.19336,5.125408 -11.19336,14.017578 0,8.159846 3.76491,14.437496 11.0879,14.437496 7.00909,0 11.61328,-5.54508 11.61328,-14.646481 0,-9.519836 -5.12639,-13.808593 -11.50782,-13.808593 z m -266.00586,2.582031 c 2.83643,-0.06618 5.6976,0.290602 8.24219,0.919922 7.08148,1.751357 13.58987,7.118392 17.30469,13.396481 2.73381,4.62044 2.51172,15.90821 2.51172,15.90821 0,0 18.43954,-1.48528 27.63086,-2.51172 7.7413,-0.86446 23.16601,-3.07032 23.16601,-3.07032 15.14329,-2.01269 14.00833,9.78431 9.85157,13.48829 -9.16381,8.16555 -29.59255,17.72695 -30.70899,18.28515 0,0 -1.44837,8.80665 -5.67187,8.35938 -11.59692,-1.2282 -15.68052,-7.50696 -23.15235,-4.96485 -11.96205,4.06976 -17.99107,5.95051 -26,9.02149 -8.0578,3.08969 -20.05078,16.37695 -20.05078,16.37695 0,0 19.46704,-0.35283 26.79297,5.02344 2.55016,1.87147 1.95394,6.45176 4.4668,8.37305 2.65345,2.02877 6.79222,0.71445 9.76758,2.23242 1.76184,0.89892 4.12399,1.96016 4.46679,3.9082 1.80393,10.25246 -7.39211,20.32429 -15.07226,27.35156 -6.30017,5.76465 -15.9572,6.22318 -23.44532,10.32813 -11.17749,6.12741 -20.29833,15.7547 -31.81836,21.21094 -10.06702,4.76802 -22.19811,4.39901 -31.95703,9.76953 -4.94199,2.71971 -7.61892,8.8895 -12.83984,11.02539 -10.27,4.2014 -22.731127,5.8735 -33.212891,2.23242 -4.386482,-1.52375 -7.286253,-5.83934 -10.326172,-9.34961 -1.90882,-2.20414 -4.884766,-7.25781 -4.884766,-7.25781 0,0 -5.155147,1.58122 -7.814453,1.95312 -2.811761,0.39307 -8.513672,0.2793 -8.513672,0.2793 0,0 0.321013,-12.80985 2.232422,-18.83789 5.611771,-17.6979 15.58547,-21.44621 26.515625,-48.98438 6.954675,-17.52204 15.767285,-35.31211 29.445317,-48.28515 11.65815,-11.05735 27.07333,-18.13914 42.42382,-22.88672 8.04376,-2.48788 25.1211,-2.65039 25.1211,-2.65039 l 10.74414,-8.23438 c 0,0 -1.78441,-13.528047 2.37305,-17.863278 3.02383,-3.153165 7.68472,-4.436573 12.4121,-4.546875 z m -1.57421,9.457031 c -0.22324,0.0075 -0.44566,0.03354 -0.66797,0.08203 -1.39548,0.304366 -2.63837,1.267345 -3.60547,2.318362 -2.105,2.28771 -4.375,8.23633 -4.375,8.23633 0.1058,2.85025 -2.26953,7.2539 -2.26953,7.2539 -6.93026,2.70611 -7.24212,5.88494 -9.57032,7.9336 -29.22784,-4.6718 -50.61934,12.73355 -69.5,29.34375 -11.778348,10.36199 -18.023921,25.62362 -23.683589,40.66992 l 6.693359,0.51562 c 6.008141,-9.06618 10.70966,-20.70492 20.5918,-26.77148 1.71333,-1.05181 3.29972,-0.14811 4.63476,3.86133 4.26591,-2.55682 7.4462,-2.85947 8.23633,1.80273 5.71432,-1.49272 9.60107,-0.24592 12.09766,3.08789 2.91063,-1.3821 5.84863,-3.06432 8.23828,1.54492 2.78173,-0.93006 5.01443,-0.76378 5.66211,2.57422 1.88766,0.0219 3.77444,-1.1913 5.66211,1.54492 0.74681,-2.94266 4.27258,-3.10821 8.7539,-2.3164 -3.23403,-5.64325 -1.09877,-17.72937 -1.28711,-27.02734 0,0 2.31527,21.10778 2.83008,20.07812 0.51483,-1.02962 21.24895,-11.19254 29.60352,-19.56445 5.51376,-5.52518 8.24636,-13.27295 12.86914,-19.5625 1.75691,-2.39033 0.89258,-1.3125 0.89258,-1.3125 -1.46778,0.36843 -7.90572,1.67602 -9.80274,0.60547 -2.81926,-1.59094 -1.39051,-1.36755 -1.65625,-1.66016 1.09656,0.75546 2.01976,1.08255 3.36524,1.11523 4.07066,0.099 8.92443,-1.31428 12.87109,-1.33007 0.38064,-0.0911 -2.22608,-0.74431 -5.01367,-1.03711 -1.76776,-0.18558 -6.27876,-0.28595 -7.34375,-0.11133 -1.88568,0.30912 -2.92835,0.66146 -3.54492,0.89648 0.18846,-0.11434 0.55949,-0.35515 0.82812,-0.5332 0.65465,-0.315 1.38917,-0.63128 1.93945,-0.72656 5.1083,-0.88422 9.53575,-0.11292 15.51368,1.10156 -1.442,-2.50483 -3.44144,-3.55283 -7.07618,-4.07422 1.32774,-0.14582 2.77762,-0.21836 4.38477,-0.16992 5.15176,1.22445 5.82986,-7.26486 3.88477,-10.15234 l -1.02735,-1.19727 c 0,0 0.7945,-1.49187 0.53711,-2.52149 -0.25742,-1.02961 -0.46805,-3.74496 -1.28711,-5.40624 -0.7821,-1.58654 -3.3457,-4.11915 -3.3457,-4.11915 l -3.04492,0.47852 1.24218,-2.02148 c 0,0 -1.96152,-2.363867 -3.3457,-2.832037 -1.62761,-0.550563 -3.43204,0.336805 -5.14844,0.257813 -1.59094,-0.07322 -3.17367,-0.908137 -4.73632,-0.855469 z M 165.3457,179.32422 c -3.87368,-0.16203 -6.8893,0.8686 -8.71093,3.55664 -1.47217,-2.47393 -3.70802,-2.20088 -5.70508,-2.78516 -1.28263,-1.76579 -3.80584,-1.17777 -6.13281,-1.37695 -2.2539,-2.64673 -4.73845,-3.45452 -7.76758,-2.74219 -4.0943,-2.0561 -8.1792,-4.19902 -12.78516,-0.62695 -1.02044,-5.00315 -4.74427,-4.60221 -9.41992,-2.29492 0.14798,-3.39708 -1.04941,-5.03365 -4.31055,-3.97266 0,0 -8.10191,8.29491 -10.10351,13.56641 -1.550786,4.08415 -1.121098,12.41732 -1.121098,13.05859 l 7.373048,-6.32422 c 3.51659,-1.90605 3.61328,0.84375 3.61328,0.84375 0,0 3.06756,-2.61819 4.08203,-3.24804 3.60753,0.15817 3.05755,2.24231 1.12305,4.96875 3.62742,0.43351 3.45867,3.25739 3.52734,5.93164 2.35669,-0.22704 2.84862,1.44197 2.72461,2.72656 3.31924,-0.18388 3.89592,1.607 3.84766,3.84765 1.18031,-0.77049 2.42411,-1.11785 4.00781,0.80079 2.12128,-2.3237 4.23103,-1.35687 5.61133,0.16015 l 7.05469,-8.97656 c 3.29339,-2.11941 3.6648,0.25552 0.64062,7.85547 2.65908,-1.66065 5.71317,-0.3531 7.05469,2.4043 1.79433,-3.19567 4.1559,-1.28119 6.41211,-0.32032 2.38406,-3.02188 5.63793,-2.56788 8.97851,-1.76367 1.82909,-1.70846 5.75492,-0.79319 9.45704,-0.16016 1.74136,-2.08217 4.50136,-1.78949 7.69531,-0.48242 1.65844,-1.63268 3.94048,-2.39134 8.01562,-0.64062 -1.50536,-1.75325 3.19839,-2.07321 7.85547,-2.4043 0,0 -10.71629,-1.76515 -15.38867,-4.32812 -2.95322,-1.61998 -7.53516,-6.73438 -7.53516,-6.73438 0,0 14.77056,4.98468 13.30664,2.72656 -1.46391,-2.25811 -5.13086,-4.00781 -5.13086,-4.00781 0,0 8.33975,1.44244 12.34375,0.48047 2.97768,-0.71535 11.86757,-3.86775 8.01563,-4.49023 -3.85194,-0.62253 -9.04206,2.39245 -13.62695,2.08593 -8.66599,-0.57947 -25.00196,-7.33398 -25.00196,-7.33398 z m 494.42578,-76.45899 c -4.81224,0 -8.99609,1.36023 -8.99609,6.48633 0,3.03379 1.46504,5.43946 5.54492,5.43946 4.81225,0 9.93788,-3.45284 10.25196,-11.29883 -2.19689,-0.3137 -4.6039,-0.62696 -6.80079,-0.62696 z m -105.45117,3.66016 h 14.12305 v 16.94922 h -14.12305 z m -271.77929,14.11719 c -4.17907,0.003 -11.51954,2.85547 -11.51954,2.85547 0,0 -10.42966,6.19076 -15.86523,8.39453 -1.07426,0.43555 -2.39859,0.88515 -3.78711,1.33008 2.36304,-0.95687 4.50712,-2.04178 5.83203,-3.18164 4.66606,-4.01466 11.77344,-6.93164 11.77344,-6.93164 -0.79185,-0.82802 -0.74848,-2.2296 -9.56445,2.45898 0.16996,-1.95466 -3.30133,0.33839 -6.09375,1.83984 1.42091,-2.62136 -3.80027,-0.16309 -6.32227,0.23047 2.97884,-3.47535 -4.60181,-0.49522 -6.89844,1.60938 1.29132,-1.15223 -0.27744,-4.44033 -8.62109,1.38086 l -0.13477,0.0527 c -0.57509,0.0737 -1.11026,0.12916 -1.57031,0.13672 l -10.10937,0.37891 c -0.29341,0.0677 -8.04953,0.66827 -7.74414,0.94531 0,0 -7.86113,12.46702 -10.01172,17.32031 0,0.66463 13.83708,-2.47726 20.75195,-7.01953 4.15994,-2.73264 13.87305,-0.35742 13.87305,-0.35742 l 8.23242,2.27734 c 3.67245,1.05683 9.53372,2.29684 5.08594,-0.63672 -1.65234,-1.08986 -3.09325,-1.82026 -4.25391,-2.31054 4.85178,-1.39325 13.25504,-3.9658 18.18555,-6.41993 7.19066,-3.57902 23.82909,-12.54517 20.6914,-14.02539 -0.49028,-0.23093 -1.15583,-0.32861 -1.92968,-0.32812 z m -90.25586,4.90039 a 3.1042123,3.0845651 0 0 1 2.55078,1.33008 2.1665043,2.1527922 0 0 0 -1.61328,-0.72071 2.1665043,2.1527922 0 0 0 -2.16602,2.15235 2.1665043,2.1527922 0 0 0 2.16602,2.15234 2.1665043,2.1527922 0 0 0 2.1582,-1.98242 3.1042123,3.0845651 0 0 1 0.008,0.1543 3.1042123,3.0845651 0 0 1 -3.10351,3.08398 3.1042123,3.0845651 0 0 1 -3.10352,-3.08398 3.1042123,3.0845651 0 0 1 3.10352,-3.08594 z m 133.24609,37.75 v 146.06445 h 80.01172 62.38281 54.27344 2.40234 75.92969 V 163.29297 h -75.92969 -2.40234 -54.27344 -62.38281 z m -227.867188,23.8418 c -1.280069,0.59036 -10.860589,13.44806 -14.371093,20.87109 -3.510505,7.42303 -6.188262,18.35497 -6.623047,22.99219 -0.434789,4.63717 0.358068,1.97285 0.375,4 0.01701,2.02715 -0.665018,5.61321 -0.625,8.12304 0.04002,2.5098 0.665747,4.03289 0.75,6.87305 0.08421,2.84024 -0.5,10.12109 -0.5,10.12109 -1.514737,6.60843 1.39533,4.14884 2.75,4.875 1.296718,2.3215 2.317418,4.97676 7.746094,2.24805 5.238565,2.70781 7.834321,0.97114 9.623046,-2.12305 2.107885,2.93435 5.592658,2.40435 6.748048,-1.25 5.51271,4.9629 7.2471,0.55099 8.99805,-1.625 7.92458,-1.98508 8.57481,-7.18567 6.99804,-13.37109 6.07267,3.27757 8.64356,0.84649 10.49805,-2.75 2.30503,0.92591 4.31168,2.53863 8.12305,0 0.40139,0.93661 5.78276,1.88384 6.87304,-1.49805 0.72303,-2.24273 4.99805,-5 4.99805,-5 0,0 5.11444,1.965 7.49805,1.125 4.27355,-1.50606 3.87304,-4.74804 3.87304,-4.74804 0,0 5.79935,0.7883 7.44532,-1.10547 1.50723,-1.73412 0.0527,-6.89258 0.0527,-6.89258 0,0 3.30902,0.83203 5,0.875 2.72715,0.0692 5.81615,0.45618 8.12305,-1 0.66603,-0.4204 1.34843,-1.20877 1.26758,-1.99219 -0.21525,-2.08656 -4.39258,-4.50586 -4.39258,-4.50586 0,0 4.24102,1.05928 5.74804,-0.125 0.5085,-0.39953 0.50001,-1.875 0.5,-1.875 0,0 10.74016,1.77645 14.9961,0.75 4.25597,-1.02652 10.42088,-2.36963 9.74805,-5.62304 -0.67284,-3.2535 -7.57055,0.125 -8.44532,0.125 -0.87477,0 -6.58009,1.06898 -9.80078,0.49804 -1.78266,-0.31597 -4.99804,-2.12304 -4.99805,-2.12304 0,0 4.10243,0.28837 6.12305,0 0.72118,-0.10281 1.38309,-0.46945 2.09766,-0.61133 2.42706,-0.48178 3.78668,-0.16744 7.38086,-0.80274 3.59421,-0.63537 9.11641,-2.56605 13.14062,-4.95898 3.17707,-1.8892 5.84286,-4.40231 8.49805,-7.49805 0.96794,-1.12856 1.93055,-3.32788 0.875,-4.375 -1.44994,-1.43841 -4.26854,0.16362 -5.99805,1.25 -2.87421,1.80526 -6.92483,7.11204 -11.24804,6.62305 -3.08773,-0.34923 -4.80061,-1.11278 -7.21875,-0.92188 -2.9088,0.2298 -9.12159,0.29219 -8.4004,2.45899 -2.2201,0.0968 -4.54355,-1.92303 -9.31445,0.72461 -3.39983,-0.3651 -6.68532,-1.44478 -7.77929,0.60547 -0.96682,-0.63644 -7.92036,-1.89318 -9.29102,1.08203 -5.83124,-0.45215 -6.99952,0.133 -8.76758,1.17773 -2.4466,-2.58731 -4.63977,-0.74146 -6.87305,0.4043 -0.92551,-1.46702 -1.93782,-2.90157 -8.10156,-2.4043 0.20383,-2.47873 2.66569,-9.4157 -6.48047,0.49414 -2.25887,-1.92355 -3.94912,-0.88753 -5.66601,0.01 -1.4078,-1.54228 -2.95522,-1.68335 -4.59961,-0.85938 -0.0147,-3.79018 -2.23653,-3.32558 -4.08399,-3.81836 0.68868,-2.97482 -1.69724,-2.524 -3.61328,-2.28125 -0.40314,-2.82871 -0.12025,-5.75139 -2.55078,-6.55273 1.40469,-4.17558 -0.15916,-4.97372 -5.61914,-1.33789 v -0.002 c 0,0 0.22258,-2.44576 -1.27344,-1.58399 -1.32506,0.76322 -13.659355,11.55193 -16.732419,14.45117 1.605977,-1.75834 5.292969,-5.99023 5.292969,-5.99023 0,0 -0.073,-5.49708 1.226562,-11.15234 z m 475.205078,4.20703 8.66016,13.05664 -25.20508,11.76172 -4.39453,-6.33399 z m -483.654296,4.11328 -5.367188,0.67773 c -12.84048,25.44167 -18.72417,29.45416 -25.828125,45.32617 -2.189567,4.89211 -5.115234,15.24414 -5.115234,15.24414 0,0 4.424486,-4.34565 6.154297,-6.89453 1.957844,-2.88495 4.677734,-9.35546 4.677734,-9.35547 0,0 -3.444057,9.22881 -0.662109,9.94336 1.814256,0.46602 3.371093,-6.25 3.371093,-6.25 0,0 0.667181,7.69034 2.214844,6.1543 2.077576,-2.06196 1.139795,-8.66155 2.462891,-12.80078 0.961572,-3.00824 2.922669,-5.62717 3.939453,-8.61719 1.057497,-3.10975 1.51921,-6.39142 2.214844,-9.60156 2.213491,-10.21463 11.9375,-23.82617 11.9375,-23.82617 z m 242.650386,2.34961 h 38.51954 c 10.42703,0 18.35426,2.45721 23.7832,7.36914 5.42896,4.9119 8.14453,11.59013 8.14453,20.03515 0,4.82573 -0.86245,9.00594 -2.58594,12.53907 -1.63729,3.53312 -3.92165,6.50512 -6.85156,8.91797 -2.84374,2.3267 -6.16149,4.09435 -9.95312,5.30078 -3.70545,1.12025 -7.62538,1.67968 -11.76172,1.67968 h -12.92578 v 13.44336 h 12.92578 v 14.73438 h -39.29493 v -14.73438 h 9.04688 v -54.54882 h -9.04688 z m 26.36915,14.73633 v 26.49804 h 9.69335 c 5.94598,0 10.04073,-1.20629 12.28125,-3.61914 2.32671,-2.49905 3.48829,-5.81678 3.48829,-9.95312 0,-4.13634 -1.16158,-7.32393 -3.48829,-9.56446 -2.24052,-2.2405 -6.24785,-3.36132 -12.02148,-3.36132 z m 78.02148,9.82421 c 4.05017,0 7.71367,0.6041 10.98828,1.81055 3.36078,1.20643 6.24731,2.92939 8.66016,5.16992 2.41287,2.24051 4.26599,4.91141 5.55859,8.01368 1.3788,3.10225 2.11109,6.55014 2.19727,10.34179 0,1.2926 -0.0855,2.66982 -0.25782,4.13477 -0.0862,1.37879 -0.30179,2.80068 -0.64648,4.26562 h -38.26172 c 0.94793,9.22059 5.51467,13.83203 13.70117,13.83203 2.24051,0 4.09365,-0.30303 5.5586,-0.90625 1.46497,-0.60321 2.6285,-1.33553 3.49023,-2.19726 0.94791,-0.94793 1.63749,-1.93858 2.06836,-2.97266 0.43089,-1.12025 0.73195,-2.11092 0.9043,-2.97265 l 13.96093,2.58593 c -0.17234,2.58523 -0.90464,5.08325 -2.19726,7.4961 -1.2926,2.3267 -3.10301,4.39544 -5.42969,6.20508 -2.24053,1.80965 -4.99883,3.27427 -8.27344,4.39453 -3.2746,1.03407 -7.02162,1.55078 -11.24414,1.55078 -4.30868,0 -8.31601,-0.60217 -12.02148,-1.8086 -3.61928,-1.20642 -6.76611,-3.01681 -9.4375,-5.42968 -2.6714,-2.49905 -4.78091,-5.55846 -6.33203,-9.17774 -1.46497,-3.70547 -2.19922,-8.01388 -2.19922,-12.92578 0,-4.48106 0.64683,-8.61656 1.93945,-12.4082 1.2926,-3.8778 3.18845,-7.19556 5.6875,-9.95313 2.49903,-2.84374 5.55844,-5.04263 9.17774,-6.59375 3.6193,-1.63731 7.75482,-2.45508 12.4082,-2.45508 z m 70.76758,0.38868 c 1.63729,0 3.44572,0.25832 5.42773,0.77539 2.06816,0.43086 4.09416,1.24865 6.07617,2.45508 l 2.58399,20.42382 -12.66602,1.42188 -2.19726,-9.95313 c -0.86174,-0.51704 -1.63872,-0.90554 -2.32813,-1.16406 -0.68938,-0.25852 -1.4217,-0.38672 -2.19726,-0.38672 -1.89581,0 -3.57605,0.73232 -5.04102,2.19727 -1.37877,1.46494 -2.06836,3.61915 -2.06836,6.46289 v 24.30078 h 10.3418 v 12.53711 h -34.77149 v -12.53711 h 7.75586 v -33.0918 h -8.40234 V 223.5293 h 23.7832 v 11.11523 c 0.94791,-3.36075 2.45724,-6.16181 4.52539,-8.40234 2.15436,-2.3267 5.21374,-3.48828 9.17774,-3.48828 z m 18.27734,0.77539 h 24.42969 v 32.83203 c 0,5.08424 0.81971,8.70306 2.45703,10.85742 1.72346,2.06816 4.22149,3.10156 7.49609,3.10156 4.05017,0 7.15427,-1.24902 9.3086,-3.74804 2.15435,-2.58523 3.23047,-5.9457 3.23047,-10.08204 v -20.42382 h -9.43555 V 223.5293 h 26.10937 v 45.75781 h 8.40235 v 12.53711 h -25.07617 v -8.91797 c -1.89581,3.27458 -4.43852,5.7726 -7.62696,7.49609 -3.10226,1.72347 -6.80654,2.58594 -11.11523,2.58594 -2.75757,0 -5.38574,-0.3885 -7.88477,-1.16406 -2.41287,-0.86173 -4.56708,-2.11073 -6.46289,-3.74805 -1.89583,-1.63729 -3.40514,-3.70603 -4.52539,-6.20508 -1.03408,-2.58519 -1.55078,-5.59992 -1.55078,-9.04687 v -26.75781 h -7.75586 z m -89.04492,10.72851 c -3.44695,0 -6.11786,1.11885 -8.01367,3.35938 -1.89584,2.2405 -3.1021,5.17171 -3.61914,8.79101 h 21.8457 c 0.17235,-1.46494 0.0849,-2.88685 -0.25977,-4.26562 -0.25852,-1.46497 -0.81795,-2.75866 -1.67968,-3.87891 -0.77559,-1.20642 -1.8517,-2.15436 -3.23047,-2.84375 -1.37877,-0.77558 -3.06096,-1.16211 -5.04297,-1.16211 z"
       transform="matrix(0.26458333,0,0,0.26458333,48.072277,91.570913)"
       id="rect1752"
       inkscape:connector-curvature="0" />
    <g
       aria-label="Perú"
       style="font-style:normal;font-variant:normal;font-weight:bold;font-stretch:normal;font-size:34.20021057px;line-height:1;font-family:'Zilla Slab Highlight';-inkscape-font-specification:'Zilla Slab Highlight Bold';text-align:start;letter-spacing:0px;word-spacing:0px;text-anchor:start;fill:#000000;fill-opacity:1;stroke:none;stroke-width:0.26458329"
       id="text2799"
       transform="translate(-1.7441998)" />
    <g
       style="stroke-width:1.55748987"
       id="g1607"
       transform="matrix(-0.64205876,0,0,0.64205876,164.22595,64.271385)" />
  </g>
  <style
     id="style2"
     type="text/css">
	.st0{fill:#FFFFFF;}
</style>
  <style
     id="style2-7"
     type="text/css">
	.st0{fill:#FFFFFF;}
</style>
</svg>
