<?xml version="1.0" encoding="UTF-8" standalone="no"?>
<!-- Created with Inkscape (http://www.inkscape.org/) -->

<svg
   xmlns:dc="http://purl.org/dc/elements/1.1/"
   xmlns:cc="http://creativecommons.org/ns#"
   xmlns:rdf="http://www.w3.org/1999/02/22-rdf-syntax-ns#"
   xmlns:svg="http://www.w3.org/2000/svg"
   xmlns="http://www.w3.org/2000/svg"
   xmlns:sodipodi="http://sodipodi.sourceforge.net/DTD/sodipodi-0.dtd"
   xmlns:inkscape="http://www.inkscape.org/namespaces/inkscape"
   width="374.64975"
   height="437.94992"
   viewBox="0 0 99.126076 115.87425"
   version="1.1"
   id="svg1074"
   sodipodi:docname="MozVE_logoPlano_Vertical.svg"
   inkscape:version="0.92.2 (unknown)"
   inkscape:export-filename="/home/keik/Escritorio/MozillaVenezuela_logo/MozVE_logoPlano.png"
   inkscape:export-xdpi="300"
   inkscape:export-ydpi="300">
  <title
     id="title818">MozVE_logoPlano_Vertical</title>
  <defs
     id="defs1068" />
  <sodipodi:namedview
     id="base"
     pagecolor="#ffffff"
     bordercolor="#666666"
     borderopacity="1.0"
     inkscape:pageopacity="0.0"
     inkscape:pageshadow="2"
     inkscape:zoom="1.1964838"
     inkscape:cx="26.436774"
     inkscape:cy="215.63184"
     inkscape:document-units="px"
     inkscape:current-layer="layer1"
     showgrid="false"
     showguides="true"
     inkscape:guide-bbox="true"
     fit-margin-top="0"
     fit-margin-left="0"
     fit-margin-right="0"
     fit-margin-bottom="0"
     borderlayer="true"
     inkscape:showpageshadow="false"
     inkscape:window-width="1332"
     inkscape:window-height="715"
     inkscape:window-x="34"
     inkscape:window-y="0"
     inkscape:window-maximized="1"
     units="px">
    <sodipodi:guide
       position="15.171443,100.70281"
       orientation="0,1"
       id="guide1739"
       inkscape:locked="false" />
    <sodipodi:guide
       position="83.954627,15.171448"
       orientation="0,1"
       id="guide1741"
       inkscape:locked="false" />
    <sodipodi:guide
       position="15.171443,100.70281"
       orientation="1,0"
       id="guide1743"
       inkscape:locked="false" />
    <sodipodi:guide
       position="83.954627,15.171448"
       orientation="1,0"
       id="guide1745"
       inkscape:locked="false" />
  </sodipodi:namedview>
  <metadata
     id="metadata1071">
    <rdf:RDF>
      <cc:Work
         rdf:about="">
        <dc:format>image/svg+xml</dc:format>
        <dc:type
           rdf:resource="http://purl.org/dc/dcmitype/StillImage" />
        <dc:title>MozVE_logoPlano_Vertical</dc:title>
        <cc:license
           rdf:resource="http://creativecommons.org/licenses/by-sa/4.0/" />
        <dc:date>Febrero 2018</dc:date>
        <dc:creator>
          <cc:Agent>
            <dc:title>Karla Hernández</dc:title>
          </cc:Agent>
        </dc:creator>
        <dc:rights>
          <cc:Agent>
            <dc:title>Mozilla Venezuela</dc:title>
          </cc:Agent>
        </dc:rights>
        <dc:publisher>
          <cc:Agent>
            <dc:title>Mozilla El Salvador</dc:title>
          </cc:Agent>
        </dc:publisher>
        <dc:source>Mozilla Hispano</dc:source>
        <dc:description>Diseño realizado y donado para Mozilla Venezuela desde el equipo creativo de Mozilla Hispano por Karla Hernández (Telegram: @karlalhdz)</dc:description>
      </cc:Work>
      <cc:License
         rdf:about="http://creativecommons.org/licenses/by-sa/4.0/">
        <cc:permits
           rdf:resource="http://creativecommons.org/ns#Reproduction" />
        <cc:permits
           rdf:resource="http://creativecommons.org/ns#Distribution" />
        <cc:requires
           rdf:resource="http://creativecommons.org/ns#Notice" />
        <cc:requires
           rdf:resource="http://creativecommons.org/ns#Attribution" />
        <cc:permits
           rdf:resource="http://creativecommons.org/ns#DerivativeWorks" />
        <cc:requires
           rdf:resource="http://creativecommons.org/ns#ShareAlike" />
      </cc:License>
    </rdf:RDF>
  </metadata>
  <g
     inkscape:label="Capa 1"
     inkscape:groupmode="layer"
     id="layer1"
     transform="translate(-53.285902,-50.103998)">
    <path
       style="fill:#000000;stroke:none;stroke-width:0.70596147px;stroke-linecap:butt;stroke-linejoin:miter;stroke-opacity:1"
       d="m 247.76758,57.214844 c 0,0 -18.68499,22.465864 -28.92188,32.865234 -8.30562,8.437448 -23.6619,23.223572 -26.29101,23.880862 0,0 5.86637,-0.97391 7.01172,1.0957 1.34653,2.43323 -3.28711,7.66797 -3.28711,7.66797 0,0 5.51009,-3.65717 7.44922,-1.97266 2.33196,2.0258 -1.09571,9.20313 -1.09571,9.20313 0,0 5.82674,-0.5771 6.79297,1.5332 1.55059,3.38653 -5.25781,9.85938 -5.25781,9.85938 0,0 5.61397,1.05142 5.91406,3.28711 0.59762,4.45317 -9.63867,9.41992 -9.63867,9.41992 0,0 5.09189,1.58309 5.25781,3.72461 0.27519,3.55298 -7.66797,7.44922 -7.66797,7.44922 0,0 5.8537,4.72177 5.03907,7.66992 -1.29627,4.69111 -13.14649,6.35351 -13.14649,6.35351 0,0 4.71327,0.57695 5.03906,2.41016 0.7143,4.01699 -8.54492,8.76367 -8.54492,8.76367 0,0 4.1133,2.98674 3.72461,5.03906 -1.07463,5.67421 -14.67969,9.20118 -14.67969,9.20118 0,0 3.19603,0.51569 3.28711,1.7539 0.15292,2.08316 -5.03906,3.72461 -5.03906,3.72461 0,0 4.8515,5.98997 3.94336,9.20117 -0.41359,1.46234 -3.72461,2.62891 -3.72461,2.62891 0,0 4.40949,8.98101 1.75391,12.05078 -1.24229,1.43607 -5.69727,0 -5.69727,0 0,0 3.72014,7.45316 2.41016,10.95508 -0.98772,2.64034 -6.79297,5.03906 -6.79297,5.03906 0,0 0.36122,5.55082 -1.5332,7.01172 -1.3892,1.07112 -5.25782,-0.2207 -5.25782,-0.2207 0,0 -0.0105,3.0415 -0.87695,4.16406 -0.9978,1.29275 -4.38086,2.18945 -4.38086,2.18945 0,0 1.18135,4.3372 0,5.91602 -1.55062,2.07262 -7.44922,2.1914 -7.44922,2.1914 l 2.84766,4.38086 c 0,0 2.95641,4.14161 6.57422,7.52149 h -3.45508 c -2.73754,-2.84071 -7.26694,-7.6272 -9.76172,-10.8125 -0.83381,-1.06462 -2.25,-3.375 -2.25,-3.375 0,0 -18.89595,-5.18278 -24.59375,-12.37695 -3.28384,-4.14622 -3.69727,-15.43165 -3.69727,-15.43165 0,0 16.60328,5.00682 19.61133,-0.80273 0.99767,-1.92684 -3.53711,-5.4668 -3.53711,-5.4668 0,0 8.65307,1.19782 9.80469,-1.92773 0.68562,-1.86085 -3.69727,-4.66211 -3.69727,-4.66211 0,0 9.45003,1.26471 9.9668,-2.08984 0.44927,-2.91636 -7.7168,-4.33985 -7.7168,-4.33985 0,0 10.57134,-1.45353 9.9668,-5.14258 -0.63111,-3.85107 -11.57422,-1.76757 -11.57422,-1.76757 0,0 3.39744,-1.22965 3.69727,-2.73243 0.36676,-1.83825 -2.89258,-4.82226 -2.89258,-4.82226 0,0 7.69601,0.21986 8.03711,-2.57227 0.35883,-2.93714 -7.55469,-4.66211 -7.55469,-4.66211 0,0 11.21771,0.73254 11.41211,-3.21484 0.13021,-2.6434 -7.39453,-2.89258 -7.39453,-2.89258 0,0 13.07093,-2.62749 13.82422,-7.87695 0.30678,-2.13794 -4.5,-4.66016 -4.5,-4.66016 0,0 9.58653,-7.1074 7.71484,-11.25195 -0.91081,-2.01689 -6.58984,-0.80469 -6.58984,-0.80469 0,0 11.61757,-7.55105 9.80469,-12.53711 -0.87973,-2.41961 -7.55469,-1.60742 -7.55469,-1.60742 0,0 14.36428,-9.47567 10.44727,-13.66211 -6.28461,-6.71678 -22.98438,15.26953 -22.98438,15.26953 l -10.93359,6.95313 -9.23829,57.67968 c 0,0 0.806,-24.36776 -1.8496,-25.57226 -1.51342,-0.68644 -4.66211,1.76758 -4.66211,1.76758 0,0 1.10532,-9.32388 -2.25,-10.92969 -1.90212,-0.91033 -5.625,2.89258 -5.625,2.89258 0,0 -0.84433,-6.93328 -3.53711,-7.39453 -1.12027,-0.19189 -2.410159,2.41211 -2.410159,2.41211 0,0 -1.309659,-7.97121 -4.501953,-9.00196 -1.208727,-0.39028 -3.375,1.76758 -3.375,1.76758 0,0 -6.478731,-20.40187 -13.341797,-17.67969 -5.961978,2.36477 2.089843,19.12696 2.089843,19.12696 0,0 10.147264,16.34902 15.109375,24.59179 2.50232,4.15673 5.144531,8.8418 5.144531,8.8418 14.4062,10.5507 12.87866,10.47909 16.7168,13.98437 0,0 -18.089158,-13.73754 -28.77344,-16.71679 -5.884456,-1.64088 -12.726048,-2.77193 -18.322266,-0.32227 -6.04885,2.64798 -11.544217,8.3903 -13.18164,14.78711 v 0.002 c -0.17726,0.69249 -0.167977,3.50759 1.125,3.85743 5.451084,1.47477 7.811328,-7.41964 12.296875,-11.6543 3.375658,-3.18682 9.413141,-3.71524 13.904297,-0.80273 3.468733,2.24949 5.292966,6.10724 6.267578,10.125 0.868127,3.57879 2.011534,7.51298 0.642578,10.93164 -1.326758,3.31324 -8.4375,6.58984 -8.4375,6.58984 0,0 6.681284,10.37475 11.009766,14.70703 9.836552,9.84514 21.411492,17.89505 33.238282,25.2793 H 58.535156 v 57.34179 H 259.14453 v -10.17187 c 1.95516,1.75783 3.93896,3.57904 5.93555,5.42969 v 5.08008 h 5.41601 c 11.1578,10.59481 22.12926,21.75797 29.60352,30.05078 14.48651,16.07304 13.18912,7.87846 11.05078,4.52148 -8.524,-13.38161 -18.64007,-24.51097 -29.55664,-34.57226 h 9.30273 1.17969 17.43555 c 2.14354,1.70677 4.28251,3.29243 6.42187,4.66796 2.1487,1.38152 1.48605,-3.06554 -0.0312,-6.81054 V 283.1875 h -23.82617 -1.17969 -25.8164 v 15.64258 c -1.96455,-1.27376 -3.94122,-2.52949 -5.93555,-3.75781 v -11.89844 h -21.05078 c -0.44625,-0.23163 -0.89073,-0.46757 -1.33789,-0.69727 -7.90575,-4.06099 -24.32422,-10.92187 -24.32422,-10.92187 0,0 7.503,1.05501 11.16797,1.98633 3.55,0.90209 9.18359,5.21289 9.18359,5.21289 0,0 -4.27372,-5.74909 -7.19726,-7.69532 -5.73113,-3.81528 -19.35938,-7.19726 -19.35938,-7.19726 0,0 0.53065,2.75268 -0.24804,3.72265 -2.21231,2.75649 -10.17774,2.97852 -10.17774,2.97852 0,0 15.4713,6.42937 28.64063,12.61133 H 215.5 c -9.74048,-4.39314 -18.13086,-7.71289 -18.13086,-7.71289 0,0 1.52885,4.29076 1.49219,7.71289 h -16.94531 c -0.20292,-0.12173 -0.7461,-0.42969 -0.7461,-0.42969 0,0 -0.0609,0.18052 -0.1543,0.42969 h -3.6582 c 0.0255,-0.0254 0.0553,-0.0438 0.0801,-0.0703 3.34738,-3.58099 -6.13477,-13.36524 -6.13477,-13.36524 0,0 17.71702,17.08222 23.00586,10.51563 4.58106,-5.68778 -13.14648,-17.52735 -13.14648,-17.52735 0,0 17.74011,8.22702 20.81445,1.97266 2.6897,-5.47185 -12.48828,-13.36524 -12.48828,-13.36524 0,0 14.22299,6.60563 17.52734,1.75196 1.61757,-2.37596 -3.94335,-7.66797 -3.94335,-7.66797 0,0 7.4759,-1.90799 8.32421,-5.03906 0.76063,-2.80725 -4.1621,-7.66797 -4.1621,-7.66797 0,0 6.36315,-2.40945 7.01171,-5.25782 0.45691,-2.0065 -2.84961,-5.47851 -2.84961,-5.47851 0,0 5.71948,-3.30084 5.91602,-6.13477 0.27477,-3.96385 -7.00977,-9.64062 -7.00977,-9.64062 0,0 18.66085,-0.76342 18.62305,-7.44922 -0.0339,-6.26578 -17.5293,-6.79102 -17.5293,-6.79102 0,0 9.16048,0.22121 13.36524,-1.31445 2.66396,-0.97292 7.01172,-4.82031 7.01172,-4.82031 l -19.5,-3.50586 c 0,0 9.49188,-0.42529 13.80273,-2.19141 4.65079,-1.90539 12.26953,-8.76367 12.26953,-8.76367 l -15.77539,0.21875 c 0,0 10.50115,-4.22405 14.89844,-7.66797 3.58605,-2.80858 8.98438,-10.29687 8.98437,-10.29687 l -13.14648,3.0664 c 0,0 13.19135,-6.03807 17.74609,-11.39257 3.9207,-4.60911 7.23047,-16.6504 7.23047,-16.6504 0,0 -7.78333,4.16331 -11.83008,5.91407 -4.07159,1.76153 -12.48828,4.60156 -12.48828,4.60156 0,0 17.53371,-13.16833 23.88086,-21.91016 3.72518,-5.13059 7.88672,-17.306637 7.88672,-17.306637 0,0 -9.58404,7.302137 -14.89844,10.078127 -5.75829,3.00786 -18.18359,7.00976 -18.18359,7.00976 0,0 19.3873,-13.77981 25.41406,-23.662106 2.52805,-4.145336 3.94336,-14.021484 3.94336,-14.021484 0,0 -10.73697,9.508493 -16.86914,13.144531 -4.58623,2.719374 -14.67969,6.355469 -14.67969,6.355469 0,0 11.47208,-15.258973 14.67969,-24.101562 2.0146,-5.553808 2.62891,-17.527344 2.62891,-17.527344 z M 72.773438,60.517578 c -2.698111,0.05512 -6.650391,2.724607 -6.650391,2.72461 0,-10e-7 6.343007,25.954798 6.912109,38.576172 0.494245,10.96119 -2.894531,31.02344 -2.894531,31.02344 0,0 7.3187,-9.01799 11.734375,-7.55469 3.041783,1.00801 3.375,9 3.375,9 0,0 2.136388,-2.3088 3.375,-1.92773 5.130232,1.57829 7.072266,14.46679 7.072266,14.46679 0,0 2.343457,-2.24463 3.697265,-1.92969 3.882819,0.90333 7.072269,9.64454 7.072269,9.64454 0,0 4.04761,-1.85811 5.78711,-0.96485 3.13339,1.60905 4.66211,9.48438 4.66211,9.48438 0,0 0.45006,-1.61584 1.125,-1.92969 2.26837,-1.05482 7.39453,1.28516 7.39453,1.28516 0,0 3.50511,-10.13673 1.76757,-14.78711 -1.08857,-2.91363 -6.9121,-6.26954 -6.9121,-6.26953 0,0 -0.36983,-5.39762 -1.60743,-7.71485 -1.83846,-3.44226 -8.19726,-8.35742 -8.19726,-8.35742 0,0 -0.60625,-8.12877 -2.73242,-11.41211 -2.24265,-3.46321 -9.804691,-7.55469 -9.804691,-7.55469 0,0 -1.307189,-10.26083 -4.019531,-14.466794 -2.535614,-3.9319 -10.769532,-9.001954 -10.769532,-9.001954 0,0 0.459215,-5.365737 -0.320312,-7.875 -1.671455,-5.380299 -3.697526,-12.408093 -9.001953,-14.30664 -0.319044,-0.114191 -0.679014,-0.160218 -1.064453,-0.152344 z M 188.625,117.81641 c -3.17182,-0.0871 -7.3169,2.65676 -10.09766,4.42578 -6.10037,3.8808 -17.19691,16.26632 -14.87304,16.57617 2.32387,0.30985 4.25887,1.01957 4.80273,2.78906 1.33004,4.32731 -5.88672,12.23828 -5.88672,12.23828 0,0 2.72774,0.32405 3.09766,1.39453 1.5994,4.62841 -6.81641,13.01368 -6.81641,13.01368 0,0 3.11206,0.46792 3.40821,1.70312 1.0331,4.30882 -7.9004,10.69141 -7.90039,10.69141 0,0 4.32353,6.36908 3.09765,9.44922 -1.04244,2.61925 -7.43555,4.02929 -7.43555,4.02929 0,0 3.25245,2.50493 2.94336,4.18164 -0.51931,2.81711 -7.12695,4.80274 -7.12695,4.80274 0,0 2.94193,2.71302 2.32422,4.18359 -0.82965,1.97518 -6.19727,1.70313 -6.19727,1.70313 0,0 3.32526,0.74219 3.25391,2.01562 -0.0608,1.08401 -2.94336,1.39258 -2.94336,1.39258 0,0 5.94304,-0.39796 7.28125,1.70508 1.0766,1.6919 -0.20605,4.16854 -1.24023,5.88672 -0.62396,1.03672 -2.78711,2.32422 -2.78711,2.32422 0,0 2.54452,2.49323 2.32226,4.02734 -0.40853,2.81975 -6.19531,5.88867 -6.19531,5.88867 0,0 1.26688,2.9395 0.46484,4.02734 -1.49656,2.02995 -7.4375,1.39454 -7.4375,1.39454 0,0 2.37515,4.02793 1.39453,5.73242 -1.45033,2.52102 -6.34276,2.96066 -9.75976,3.25195 -4.08611,0.3481 -12.16211,-1.85742 -12.16211,-1.85742 0,0 1.78651,8.83444 4.18359,11.30859 6.30021,6.50276 24.47657,11.77344 24.47657,11.77344 0,0 4.3871,-0.25233 5.42382,-1.85742 1.35086,-2.09133 -0.69726,-7.4375 -0.69726,-7.4375 0,0 6.12917,0.83547 7.43555,-1.31641 1.6994,-2.79927 -2.94336,-9.37304 -2.94336,-9.37304 0,0 5.70256,6.47693 8.28906,4.64843 2.97408,-2.10243 -1.85938,-10.76757 -1.85938,-10.76758 0,0 5.17111,3.8448 7.04883,2.2461 3.45884,-2.9449 -2.01367,-13.47852 -2.01367,-13.47852 0,0 5.66257,0.76039 6.81641,-1.24023 2.13816,-3.70726 -4.33789,-12.08399 -4.33789,-12.08399 0,0 5.28719,1.11115 6.04296,-0.77343 1.55799,-3.88509 -7.90234,-9.75977 -7.90234,-9.75977 0,0 6.39288,1.64704 7.28125,-0.62109 0.86656,-2.21242 -4.80273,-5.26758 -4.80273,-5.26758 0,0 14.08223,-0.45511 15.02734,-5.73242 0.58065,-3.24216 -7.43555,-6.50586 -7.43555,-6.50586 0,0 12.75502,-1.66483 13.01367,-6.50781 0.17349,-3.24713 -8.21093,-5.26563 -8.21093,-5.26563 0,0 16.25123,-0.23508 16.88672,-6.19727 0.31748,-2.97738 -7.5918,-4.80273 -7.5918,-4.80273 0,0 11.07529,-2.75879 11,-7.12695 C 199.23495,155.6377 191.54102,154 191.54102,154 c 0,0 13.22674,-3.45081 12.39453,-8.36523 -0.47267,-2.79114 -8.21094,-2.16797 -8.21094,-2.16797 0,0 10.98433,-5.82725 8.83008,-9.60547 -1.72581,-3.02673 -10.22461,2.16797 -10.22461,2.16797 0,0 7.39407,-5.79302 5.42187,-8.52149 -2.71476,-3.7558 -13.47851,3.41016 -13.47851,3.41016 0,0 8.08376,-8.7845 5.11328,-11.92969 -0.75432,-0.79869 -1.70445,-1.14285 -2.76172,-1.17187 z M 77.863281,130.83008 c -3.168852,-0.12617 -6.075928,3.9335 -7.240234,6.99414 -2.783497,7.31703 2.892578,23.30664 2.892578,23.30664 0,0 2.498174,-5.82156 5.144531,-6.10742 4.368393,-0.47188 7.733369,4.58164 10.447266,8.03711 1.881702,2.39587 3.697265,8.35742 3.697266,8.35742 0,0 2.966277,-0.68429 4.179687,0 2.345106,1.3225 4.179685,6.91211 4.179685,6.91211 0,0 1.48833,-2.31201 2.57032,-2.08985 2.37104,0.48686 3.37695,6.42969 3.37695,6.42969 0,0 4.98792,-0.92643 6.75,0.48242 2.31678,1.85236 2.57226,8.51758 2.57226,8.51758 0,0 1.09473,-1.68642 1.92774,-1.60547 1.09938,0.10696 2.08984,2.57032 2.08984,2.57032 l 4.66211,-26.35938 c 0,0 -5.14328,-1.04467 -7.23242,0.16016 -1.24973,0.72072 -2.25195,3.69726 -2.25195,3.69726 0,0 -2.10902,-9.18485 -5.78516,-11.25195 -1.96648,-1.10576 -6.75195,0.48242 -6.75195,0.48242 0,0 -1.98947,-7.26545 -4.982425,-8.8418 -1.618057,-0.8522 -5.464844,0.48243 -5.464844,0.48243 0,0 -1.791875,-10.37823 -5.947265,-12.05469 -1.320235,-0.53264 -4.019532,1.44726 -4.019532,1.44726 0,0 -0.804793,-8.73817 -4.177734,-9.48437 -0.213154,-0.0472 -0.425462,-0.0736 -0.636719,-0.082 z m 0.205078,86.08594 a 2.6411045,2.192615 0 0 0 -2.642578,2.19336 2.6411045,2.192615 0 0 0 2.642578,2.1914 2.6411045,2.192615 0 0 0 2.640625,-2.1914 2.6411045,2.192615 0 0 0 -2.640625,-2.19336 z m 7.085938,1.00586 c 0,-10e-6 0.699198,3.75466 0.03906,5.30468 -0.679328,1.59504 -3.59375,2.88477 -3.59375,2.88477 0,0 3.653319,0.0494 4.472657,-1.64844 0.907857,-1.88126 -0.917969,-6.54101 -0.917969,-6.54101 z m 1.833984,1.86328 c 0,0 1.070652,4.45572 0.06055,6.29492 -1.039476,1.89263 -5.5,3.42187 -5.5,3.42187 0,0 5.590043,0.0595 6.84375,-1.95507 1.389158,-2.23219 -1.404297,-7.76172 -1.404297,-7.76172 z m -20.652343,6.64843 c -1.270332,0.0607 -2.51717,0.41549 -3.507813,1.08203 -0.934571,0.62881 -1.398963,1.92735 -1.447266,3.05274 -0.187491,4.37 1.516855,9.17461 4.580079,12.29687 3.630269,3.70024 14.466796,5.70704 14.466796,5.70704 0,0 -4.593916,-3.2215 -5.464843,-5.70704 -0.889471,-2.53844 1.449225,-5.44733 0.722656,-8.03711 -0.864053,-3.07981 -2.809563,-6.35546 -5.705078,-7.71484 -1.080824,-0.50742 -2.374201,-0.74037 -3.644531,-0.67969 z m 9.189453,2.44727 c 0,0 1.215836,5.07173 1.044921,7.63476 -0.107224,1.60823 -1.285156,4.66211 -1.285156,4.66211 0,0 6.886984,-0.29176 9.5625,-2.16992 1.666526,-1.16991 3.859208,-3.18557 3.296875,-5.14258 -0.744638,-2.59143 -4.791811,-2.50504 -7.314453,-3.45703 -1.721408,-0.64966 -5.304687,-1.52734 -5.304687,-1.52734 z m 84.603519,47.64844 c -0.58286,-0.58286 5.39724,4.49317 10.71093,6.64453 h -4.92578 c -1.37296,-2.80832 -5.17736,-6.03672 -5.78515,-6.64453 z m -17.4961,4.83203 c 0,0 0.41584,0.78696 1.0625,1.8125 h -0.75976 c -0.12973,-0.59292 -0.23802,-1.1952 -0.30274,-1.8125 z m 60.78711,9.11328 h 7.07617 l -10.86523,38.2832 h -7.07813 z m 14.59961,0 h 7.07617 l -10.86523,38.2832 h -7.07813 z m 41.125,12.13281 c 1.98682,1.26313 3.96794,2.5349 5.93555,3.82813 v 10.8164 c -1.92444,-1.80391 -3.92306,-3.63732 -5.93555,-5.45507 z M 88.625,303.17969 c 3.622114,0 6.967417,1.72647 8.193359,5.40429 1.393127,-3.34348 4.234931,-5.40429 8.191411,-5.40429 4.5137,0 8.63671,2.73081 8.63671,8.69336 v 11.42383 h 3.23243 v 5.46093 H 106.40234 V 314.6582 c 0,-4.34653 -1.44903,-6.01758 -4.29101,-6.01758 -3.454947,0 -4.847658,2.45224 -4.847658,5.9629 v 8.74804 h 3.343748 v 5.46094 H 90.074219 v -14.1543 c 0,-4.34653 -1.449053,-6.01758 -4.291016,-6.01758 -3.454949,0 -4.847656,2.45224 -4.847656,5.9629 v 8.74804 h 4.792969 v 5.46094 H 70.458984 v -5.46094 h 3.34375 v -14.20898 h -3.34375 v -5.46094 h 10.533204 v 3.78906 c 1.504573,-2.67481 4.122152,-4.29101 7.632812,-4.29101 z m 44.85938,0 c 9.02746,0 13.42968,6.07436 13.42968,13.0957 0,8.02439 -5.79592,13.09375 -13.82031,13.09375 -7.74575,0 -13.09375,-4.73537 -13.09375,-12.75976 0,-7.35568 4.45698,-13.42969 13.48438,-13.42969 z m 103.87109,0 c 5.40525,0 9.97461,2.78572 9.97461,8.52539 v 10.86719 c 0,1.44884 0.55826,1.94921 1.72851,1.94921 0.33438,0 0.66855,-0.0545 1.0586,-0.16601 l 0.16601,3.84375 c -1.33738,0.72442 -2.95337,1.16992 -4.51367,1.16992 -3.34348,0 -5.18114,-1.94881 -5.51562,-5.01367 -1.44885,2.56335 -4.01214,5.01367 -8.08008,5.01367 -3.62211,0 -7.7461,-1.94938 -7.7461,-7.1875 0,-6.18546 5.96151,-7.63476 11.70118,-7.63476 1.39309,0 2.84328,0.0556 4.125,0.22265 v -0.83594 c 0,-2.56335 -0.0571,-5.62695 -4.125,-5.62695 -1.5046,0 -2.67354,0.11161 -3.84375,0.72461 l -0.83594,2.8418 -5.74024,-0.61328 0.89258,-5.79493 c 4.40228,-1.78322 6.63022,-2.28515 10.75391,-2.28515 z m -85.87109,0.50195 h 22.00976 l 0.55859,3.78906 -13.93164,15.88086 h 8.13477 l 1.17187,-3.90039 5.6836,0.55664 -1.56055,8.80469 h -21.90039 l -0.72461,-3.78906 13.82031,-15.88086 h -7.85742 l -1.11328,3.90039 -5.18359,-0.55859 z m 28.91992,0 h 7.52343 v 9.02734 h -7.52343 z m 123.35156,3.13281 c 1.565,0 2.94206,0.27206 4.13281,0.81641 1.19078,0.51031 2.19522,1.22593 3.01172,2.14453 0.81653,0.91858 1.42963,1.99005 1.83789,3.21484 0.44228,1.19076 0.66211,2.44862 0.66211,3.77539 0,0.88457 -0.10059,1.78651 -0.30469,2.70508 h -15.97461 c 0.10208,2.55164 0.76547,4.52512 1.99024,5.91992 1.22479,1.36089 2.95966,2.04102 5.20508,2.04102 1.80313,0 3.19891,-0.40808 4.18554,-1.22461 1.02065,-0.85054 1.71755,-1.99101 2.0918,-3.41992 l 3.01172,0.66406 c -0.17011,0.98661 -0.49438,1.90532 -0.9707,2.75586 -0.4763,0.85055 -1.12293,1.59976 -1.93946,2.24609 -0.78249,0.61241 -1.7347,1.1043 -2.85742,1.47852 -1.12272,0.37425 -2.38052,0.5625 -3.77539,0.5625 -1.59902,0 -3.06183,-0.25529 -4.38867,-0.76562 -1.32684,-0.51032 -2.46731,-1.25947 -3.41992,-2.2461 -0.91858,-0.98663 -1.63224,-2.1942 -2.14258,-3.62304 -0.51031,-1.42889 -0.76563,-3.06126 -0.76563,-4.89844 0,-1.76912 0.2366,-3.38473 0.71289,-4.84766 0.4763,-1.49697 1.15841,-2.77346 2.04297,-3.82812 0.9186,-1.08868 2.02358,-1.93845 3.31641,-2.55078 1.2928,-0.61239 2.73887,-0.91993 4.33789,-0.91993 z m -37.80859,0.45899 h 10.46289 v 2.91015 h -3.41993 l 5.81836,14.95118 h 0.30664 l 5.1543,-14.95118 h -3.11328 v -2.91015 h 9.74023 v 2.91015 h -3.05468 l -7.8086,19.80079 h -2.75586 l -8.16601,-19.80079 h -3.16406 z m -132.57422,1.36718 c -3.67785,0 -5.96289,2.73018 -5.96289,7.4668 0,4.34653 2.0055,7.68946 5.90625,7.68946 3.73356,0 6.18554,-2.95275 6.18554,-7.80079 0,-5.07095 -2.7297,-7.35547 -6.1289,-7.35547 z m 170.28125,1.13477 c -1.05467,0 -1.97335,0.18632 -2.75586,0.56055 -0.74847,0.37425 -1.37836,0.88485 -1.88867,1.53125 -0.51034,0.64642 -0.91842,1.39555 -1.22461,2.24609 -0.30622,0.85055 -0.51131,1.75053 -0.61328,2.70313 H 309.625 c 0.10205,-0.85055 0.0498,-1.6835 -0.1543,-2.5 -0.20414,-0.85055 -0.56,-1.59967 -1.07031,-2.2461 -0.4763,-0.68041 -1.10616,-1.22455 -1.88867,-1.63281 -0.78249,-0.44228 -1.7347,-0.66211 -2.85742,-0.66211 z m -44.50977,7.19141 c 1.97889,1.6834 3.95212,3.37607 5.93555,5.05468 v 4.6836 c -1.96537,-1.57952 -3.94829,-3.13864 -5.93555,-4.69336 z m -22.56836,0.86914 c -2.56335,0 -4.79297,0.7226 -4.79297,3.45312 0,1.61605 0.7799,2.89844 2.95313,2.89844 2.56335,0 5.2935,-1.83821 5.46094,-6.01758 -1.17022,-0.16743 -2.45088,-0.33398 -3.6211,-0.33398 z m -56.17187,1.94922 h 7.52343 v 9.02734 h -7.52343 z"
       transform="matrix(0.26458333,0,0,0.26458333,53.285902,50.103998)"
       id="path871-6-5-0"
       inkscape:connector-curvature="0" />
    <g
       aria-label="ve"
       style="font-style:normal;font-variant:normal;font-weight:normal;font-stretch:normal;font-size:13.50234222px;line-height:1;font-family:'Zilla Slab Highlight';-inkscape-font-specification:'Zilla Slab Highlight';text-align:center;letter-spacing:0px;word-spacing:0px;text-anchor:middle;opacity:1;fill:#002255;fill-opacity:1;stroke:none;stroke-width:1.44667935"
       id="text4512-14-8" />
  </g>
</svg>
